<mxfile host="app.diagrams.net" modified="2022-07-06T09:49:38.946Z" agent="5.0 (Macintosh; Intel Mac OS X 10_15_7) AppleWebKit/537.36 (KHTML, like Gecko) Chrome/103.0.0.0 Safari/537.36" etag="KgNQKbPurUKeOICvuhlW" version="20.0.3" type="github">
  <diagram id="yDVKeomo46-3DICR4W65" name="Page-1">
    <mxGraphModel dx="2276" dy="1869" grid="1" gridSize="10" guides="1" tooltips="1" connect="1" arrows="1" fold="1" page="1" pageScale="1" pageWidth="850" pageHeight="1100" math="0" shadow="0">
      <root>
        <mxCell id="0" />
        <mxCell id="1" parent="0" />
        <mxCell id="LFqhlHz371uRSVuWxBN7-13" value="" style="endArrow=none;dashed=1;html=1;strokeWidth=2;rounded=0;" parent="1" edge="1">
          <mxGeometry width="50" height="50" relative="1" as="geometry">
            <mxPoint x="350" y="480" as="sourcePoint" />
            <mxPoint x="350" y="120" as="targetPoint" />
          </mxGeometry>
        </mxCell>
        <mxCell id="LFqhlHz371uRSVuWxBN7-35" value="" style="group" parent="1" vertex="1" connectable="0">
          <mxGeometry x="390" y="180" width="375" height="276" as="geometry" />
        </mxCell>
        <mxCell id="LFqhlHz371uRSVuWxBN7-18" value="QuestionRender" style="swimlane;fontStyle=1;align=center;verticalAlign=top;childLayout=stackLayout;horizontal=1;startSize=26;horizontalStack=0;resizeParent=1;resizeParentMax=0;resizeLast=0;collapsible=1;marginBottom=0;fillColor=#ffe6cc;strokeColor=#d79b00;" parent="LFqhlHz371uRSVuWxBN7-35" vertex="1">
          <mxGeometry x="110" width="160" height="93.31707317073172" as="geometry" />
        </mxCell>
        <mxCell id="LFqhlHz371uRSVuWxBN7-19" value="+ schema: JSON" style="text;strokeColor=none;fillColor=none;align=left;verticalAlign=top;spacingLeft=4;spacingRight=4;overflow=hidden;rotatable=0;points=[[0,0.5],[1,0.5]];portConstraint=eastwest;" parent="LFqhlHz371uRSVuWxBN7-18" vertex="1">
          <mxGeometry y="26" width="160" height="29.170731707317074" as="geometry" />
        </mxCell>
        <mxCell id="LFqhlHz371uRSVuWxBN7-20" value="" style="line;strokeWidth=1;fillColor=none;align=left;verticalAlign=middle;spacingTop=-1;spacingLeft=3;spacingRight=3;rotatable=0;labelPosition=right;points=[];portConstraint=eastwest;" parent="LFqhlHz371uRSVuWxBN7-18" vertex="1">
          <mxGeometry y="55.170731707317074" width="160" height="8.975609756097562" as="geometry" />
        </mxCell>
        <mxCell id="LFqhlHz371uRSVuWxBN7-21" value="+ render: void" style="text;strokeColor=none;fillColor=none;align=left;verticalAlign=top;spacingLeft=4;spacingRight=4;overflow=hidden;rotatable=0;points=[[0,0.5],[1,0.5]];portConstraint=eastwest;" parent="LFqhlHz371uRSVuWxBN7-18" vertex="1">
          <mxGeometry y="64.14634146341464" width="160" height="29.170731707317074" as="geometry" />
        </mxCell>
        <mxCell id="LFqhlHz371uRSVuWxBN7-23" value="FormilyRender" style="swimlane;fontStyle=1;align=center;verticalAlign=top;childLayout=stackLayout;horizontal=1;startSize=26;horizontalStack=0;resizeParent=1;resizeParentMax=0;resizeLast=0;collapsible=1;marginBottom=0;" parent="LFqhlHz371uRSVuWxBN7-35" vertex="1">
          <mxGeometry y="179.51219512195124" width="160" height="93.31707317073172" as="geometry" />
        </mxCell>
        <mxCell id="LFqhlHz371uRSVuWxBN7-24" value="+ schema: JSON" style="text;strokeColor=none;fillColor=none;align=left;verticalAlign=top;spacingLeft=4;spacingRight=4;overflow=hidden;rotatable=0;points=[[0,0.5],[1,0.5]];portConstraint=eastwest;" parent="LFqhlHz371uRSVuWxBN7-23" vertex="1">
          <mxGeometry y="26" width="160" height="29.170731707317074" as="geometry" />
        </mxCell>
        <mxCell id="LFqhlHz371uRSVuWxBN7-25" value="" style="line;strokeWidth=1;fillColor=none;align=left;verticalAlign=middle;spacingTop=-1;spacingLeft=3;spacingRight=3;rotatable=0;labelPosition=right;points=[];portConstraint=eastwest;" parent="LFqhlHz371uRSVuWxBN7-23" vertex="1">
          <mxGeometry y="55.170731707317074" width="160" height="8.975609756097562" as="geometry" />
        </mxCell>
        <mxCell id="LFqhlHz371uRSVuWxBN7-26" value="+ render: void" style="text;strokeColor=none;fillColor=none;align=left;verticalAlign=top;spacingLeft=4;spacingRight=4;overflow=hidden;rotatable=0;points=[[0,0.5],[1,0.5]];portConstraint=eastwest;" parent="LFqhlHz371uRSVuWxBN7-23" vertex="1">
          <mxGeometry y="64.14634146341464" width="160" height="29.170731707317074" as="geometry" />
        </mxCell>
        <mxCell id="LFqhlHz371uRSVuWxBN7-27" value="CustomRender" style="swimlane;fontStyle=1;align=center;verticalAlign=top;childLayout=stackLayout;horizontal=1;startSize=26;horizontalStack=0;resizeParent=1;resizeParentMax=0;resizeLast=0;collapsible=1;marginBottom=0;" parent="LFqhlHz371uRSVuWxBN7-35" vertex="1">
          <mxGeometry x="215" y="177.26829268292684" width="160" height="93.31707317073172" as="geometry" />
        </mxCell>
        <mxCell id="LFqhlHz371uRSVuWxBN7-28" value="+ schema: JSON" style="text;strokeColor=none;fillColor=none;align=left;verticalAlign=top;spacingLeft=4;spacingRight=4;overflow=hidden;rotatable=0;points=[[0,0.5],[1,0.5]];portConstraint=eastwest;" parent="LFqhlHz371uRSVuWxBN7-27" vertex="1">
          <mxGeometry y="26" width="160" height="29.170731707317074" as="geometry" />
        </mxCell>
        <mxCell id="LFqhlHz371uRSVuWxBN7-29" value="" style="line;strokeWidth=1;fillColor=none;align=left;verticalAlign=middle;spacingTop=-1;spacingLeft=3;spacingRight=3;rotatable=0;labelPosition=right;points=[];portConstraint=eastwest;" parent="LFqhlHz371uRSVuWxBN7-27" vertex="1">
          <mxGeometry y="55.170731707317074" width="160" height="8.975609756097562" as="geometry" />
        </mxCell>
        <mxCell id="LFqhlHz371uRSVuWxBN7-30" value="+ render: void" style="text;strokeColor=none;fillColor=none;align=left;verticalAlign=top;spacingLeft=4;spacingRight=4;overflow=hidden;rotatable=0;points=[[0,0.5],[1,0.5]];portConstraint=eastwest;" parent="LFqhlHz371uRSVuWxBN7-27" vertex="1">
          <mxGeometry y="64.14634146341464" width="160" height="29.170731707317074" as="geometry" />
        </mxCell>
        <mxCell id="LFqhlHz371uRSVuWxBN7-33" value="Extends" style="endArrow=block;endSize=16;endFill=0;html=1;rounded=0;entryX=0.425;entryY=1.038;entryDx=0;entryDy=0;entryPerimeter=0;exitX=0.5;exitY=0;exitDx=0;exitDy=0;" parent="LFqhlHz371uRSVuWxBN7-35" source="LFqhlHz371uRSVuWxBN7-23" target="LFqhlHz371uRSVuWxBN7-21" edge="1">
          <mxGeometry width="160" relative="1" as="geometry">
            <mxPoint x="-50" y="44.87804878048781" as="sourcePoint" />
            <mxPoint x="110" y="44.87804878048781" as="targetPoint" />
          </mxGeometry>
        </mxCell>
        <mxCell id="LFqhlHz371uRSVuWxBN7-34" value="Extends" style="endArrow=block;endSize=16;endFill=0;html=1;rounded=0;exitX=0.5;exitY=0;exitDx=0;exitDy=0;entryX=0.506;entryY=1;entryDx=0;entryDy=0;entryPerimeter=0;" parent="LFqhlHz371uRSVuWxBN7-35" source="LFqhlHz371uRSVuWxBN7-27" target="LFqhlHz371uRSVuWxBN7-21" edge="1">
          <mxGeometry width="160" relative="1" as="geometry">
            <mxPoint x="-50" y="44.87804878048781" as="sourcePoint" />
            <mxPoint x="190" y="100.97560975609757" as="targetPoint" />
          </mxGeometry>
        </mxCell>
        <mxCell id="LFqhlHz371uRSVuWxBN7-39" style="edgeStyle=orthogonalEdgeStyle;rounded=0;orthogonalLoop=1;jettySize=auto;html=1;exitX=1;exitY=0.5;exitDx=0;exitDy=0;entryX=0;entryY=0.788;entryDx=0;entryDy=0;entryPerimeter=0;endArrow=block;endFill=0;dashed=1;" parent="1" source="LFqhlHz371uRSVuWxBN7-87" target="LFqhlHz371uRSVuWxBN7-19" edge="1">
          <mxGeometry relative="1" as="geometry">
            <mxPoint x="300" y="239" as="sourcePoint" />
          </mxGeometry>
        </mxCell>
        <mxCell id="LFqhlHz371uRSVuWxBN7-40" value="schema" style="edgeLabel;html=1;align=center;verticalAlign=middle;resizable=0;points=[];fontSize=15;" parent="LFqhlHz371uRSVuWxBN7-39" vertex="1" connectable="0">
          <mxGeometry x="-0.16" y="3" relative="1" as="geometry">
            <mxPoint as="offset" />
          </mxGeometry>
        </mxCell>
        <mxCell id="LFqhlHz371uRSVuWxBN7-41" value="CustomTemplateCreator" style="swimlane;fontStyle=1;align=center;verticalAlign=top;childLayout=stackLayout;horizontal=1;startSize=26;horizontalStack=0;resizeParent=1;resizeParentMax=0;resizeLast=0;collapsible=1;marginBottom=0;fontSize=15;" parent="1" vertex="1">
          <mxGeometry x="120" y="360" width="180" height="86" as="geometry" />
        </mxCell>
        <mxCell id="LFqhlHz371uRSVuWxBN7-42" value="+ ref: Ref" style="text;strokeColor=none;fillColor=none;align=left;verticalAlign=top;spacingLeft=4;spacingRight=4;overflow=hidden;rotatable=0;points=[[0,0.5],[1,0.5]];portConstraint=eastwest;fontSize=15;" parent="LFqhlHz371uRSVuWxBN7-41" vertex="1">
          <mxGeometry y="26" width="180" height="26" as="geometry" />
        </mxCell>
        <mxCell id="LFqhlHz371uRSVuWxBN7-43" value="" style="line;strokeWidth=1;fillColor=none;align=left;verticalAlign=middle;spacingTop=-1;spacingLeft=3;spacingRight=3;rotatable=0;labelPosition=right;points=[];portConstraint=eastwest;fontSize=15;" parent="LFqhlHz371uRSVuWxBN7-41" vertex="1">
          <mxGeometry y="52" width="180" height="8" as="geometry" />
        </mxCell>
        <mxCell id="LFqhlHz371uRSVuWxBN7-44" value="+ submit(): JSON" style="text;strokeColor=none;fillColor=none;align=left;verticalAlign=top;spacingLeft=4;spacingRight=4;overflow=hidden;rotatable=0;points=[[0,0.5],[1,0.5]];portConstraint=eastwest;fontSize=15;" parent="LFqhlHz371uRSVuWxBN7-41" vertex="1">
          <mxGeometry y="60" width="180" height="26" as="geometry" />
        </mxCell>
        <mxCell id="LFqhlHz371uRSVuWxBN7-59" value="Equal" style="swimlane;fontStyle=1;align=center;verticalAlign=top;childLayout=stackLayout;horizontal=1;startSize=26;horizontalStack=0;resizeParent=1;resizeParentMax=0;resizeLast=0;collapsible=1;marginBottom=0;fontSize=15;" parent="1" vertex="1">
          <mxGeometry x="-70" y="-280" width="220" height="86" as="geometry" />
        </mxCell>
        <mxCell id="LFqhlHz371uRSVuWxBN7-60" value="+ operator: string" style="text;strokeColor=none;fillColor=none;align=left;verticalAlign=top;spacingLeft=4;spacingRight=4;overflow=hidden;rotatable=0;points=[[0,0.5],[1,0.5]];portConstraint=eastwest;fontSize=15;" parent="LFqhlHz371uRSVuWxBN7-59" vertex="1">
          <mxGeometry y="26" width="220" height="26" as="geometry" />
        </mxCell>
        <mxCell id="LFqhlHz371uRSVuWxBN7-61" value="" style="line;strokeWidth=1;fillColor=none;align=left;verticalAlign=middle;spacingTop=-1;spacingLeft=3;spacingRight=3;rotatable=0;labelPosition=right;points=[];portConstraint=eastwest;fontSize=15;" parent="LFqhlHz371uRSVuWxBN7-59" vertex="1">
          <mxGeometry y="52" width="220" height="8" as="geometry" />
        </mxCell>
        <mxCell id="LFqhlHz371uRSVuWxBN7-62" value="+ evaluate(left, right): any" style="text;strokeColor=none;fillColor=none;align=left;verticalAlign=top;spacingLeft=4;spacingRight=4;overflow=hidden;rotatable=0;points=[[0,0.5],[1,0.5]];portConstraint=eastwest;fontSize=15;" parent="LFqhlHz371uRSVuWxBN7-59" vertex="1">
          <mxGeometry y="60" width="220" height="26" as="geometry" />
        </mxCell>
        <mxCell id="LFqhlHz371uRSVuWxBN7-63" value="NotEqual" style="swimlane;fontStyle=1;align=center;verticalAlign=top;childLayout=stackLayout;horizontal=1;startSize=26;horizontalStack=0;resizeParent=1;resizeParentMax=0;resizeLast=0;collapsible=1;marginBottom=0;fontSize=15;" parent="1" vertex="1">
          <mxGeometry x="-90" y="-130" width="220" height="86" as="geometry" />
        </mxCell>
        <mxCell id="LFqhlHz371uRSVuWxBN7-64" value="+ operator: string" style="text;strokeColor=none;fillColor=none;align=left;verticalAlign=top;spacingLeft=4;spacingRight=4;overflow=hidden;rotatable=0;points=[[0,0.5],[1,0.5]];portConstraint=eastwest;fontSize=15;" parent="LFqhlHz371uRSVuWxBN7-63" vertex="1">
          <mxGeometry y="26" width="220" height="26" as="geometry" />
        </mxCell>
        <mxCell id="LFqhlHz371uRSVuWxBN7-65" value="" style="line;strokeWidth=1;fillColor=none;align=left;verticalAlign=middle;spacingTop=-1;spacingLeft=3;spacingRight=3;rotatable=0;labelPosition=right;points=[];portConstraint=eastwest;fontSize=15;" parent="LFqhlHz371uRSVuWxBN7-63" vertex="1">
          <mxGeometry y="52" width="220" height="8" as="geometry" />
        </mxCell>
        <mxCell id="LFqhlHz371uRSVuWxBN7-66" value="+ evaluate(left, right): any" style="text;strokeColor=none;fillColor=none;align=left;verticalAlign=top;spacingLeft=4;spacingRight=4;overflow=hidden;rotatable=0;points=[[0,0.5],[1,0.5]];portConstraint=eastwest;fontSize=15;" parent="LFqhlHz371uRSVuWxBN7-63" vertex="1">
          <mxGeometry y="60" width="220" height="26" as="geometry" />
        </mxCell>
        <mxCell id="LFqhlHz371uRSVuWxBN7-68" value="CustomOperation" style="swimlane;fontStyle=1;align=center;verticalAlign=top;childLayout=stackLayout;horizontal=1;startSize=26;horizontalStack=0;resizeParent=1;resizeParentMax=0;resizeLast=0;collapsible=1;marginBottom=0;fontSize=15;" parent="1" vertex="1">
          <mxGeometry x="265" y="-140" width="220" height="86" as="geometry" />
        </mxCell>
        <mxCell id="LFqhlHz371uRSVuWxBN7-69" value="+ operator: string" style="text;strokeColor=none;fillColor=none;align=left;verticalAlign=top;spacingLeft=4;spacingRight=4;overflow=hidden;rotatable=0;points=[[0,0.5],[1,0.5]];portConstraint=eastwest;fontSize=15;" parent="LFqhlHz371uRSVuWxBN7-68" vertex="1">
          <mxGeometry y="26" width="220" height="26" as="geometry" />
        </mxCell>
        <mxCell id="LFqhlHz371uRSVuWxBN7-70" value="" style="line;strokeWidth=1;fillColor=none;align=left;verticalAlign=middle;spacingTop=-1;spacingLeft=3;spacingRight=3;rotatable=0;labelPosition=right;points=[];portConstraint=eastwest;fontSize=15;" parent="LFqhlHz371uRSVuWxBN7-68" vertex="1">
          <mxGeometry y="52" width="220" height="8" as="geometry" />
        </mxCell>
        <mxCell id="LFqhlHz371uRSVuWxBN7-71" value="+ evaluate(left, right): any" style="text;strokeColor=none;fillColor=none;align=left;verticalAlign=top;spacingLeft=4;spacingRight=4;overflow=hidden;rotatable=0;points=[[0,0.5],[1,0.5]];portConstraint=eastwest;fontSize=15;" parent="LFqhlHz371uRSVuWxBN7-68" vertex="1">
          <mxGeometry y="60" width="220" height="26" as="geometry" />
        </mxCell>
        <mxCell id="LFqhlHz371uRSVuWxBN7-86" value="TemplateCreator" style="swimlane;fontStyle=1;align=center;verticalAlign=top;childLayout=stackLayout;horizontal=1;startSize=26;horizontalStack=0;resizeParent=1;resizeParentMax=0;resizeLast=0;collapsible=1;marginBottom=0;fontSize=15;fillColor=#ffe6cc;strokeColor=#d79b00;" parent="1" vertex="1">
          <mxGeometry x="130" y="190" width="160" height="86" as="geometry" />
        </mxCell>
        <mxCell id="LFqhlHz371uRSVuWxBN7-87" value="+ ref: Ref" style="text;strokeColor=none;fillColor=none;align=left;verticalAlign=top;spacingLeft=4;spacingRight=4;overflow=hidden;rotatable=0;points=[[0,0.5],[1,0.5]];portConstraint=eastwest;fontSize=15;" parent="LFqhlHz371uRSVuWxBN7-86" vertex="1">
          <mxGeometry y="26" width="160" height="26" as="geometry" />
        </mxCell>
        <mxCell id="LFqhlHz371uRSVuWxBN7-88" value="" style="line;strokeWidth=1;fillColor=none;align=left;verticalAlign=middle;spacingTop=-1;spacingLeft=3;spacingRight=3;rotatable=0;labelPosition=right;points=[];portConstraint=eastwest;fontSize=15;" parent="LFqhlHz371uRSVuWxBN7-86" vertex="1">
          <mxGeometry y="52" width="160" height="8" as="geometry" />
        </mxCell>
        <mxCell id="LFqhlHz371uRSVuWxBN7-89" value="+ submit(): JSON" style="text;strokeColor=none;fillColor=none;align=left;verticalAlign=top;spacingLeft=4;spacingRight=4;overflow=hidden;rotatable=0;points=[[0,0.5],[1,0.5]];portConstraint=eastwest;fontSize=15;" parent="LFqhlHz371uRSVuWxBN7-86" vertex="1">
          <mxGeometry y="60" width="160" height="26" as="geometry" />
        </mxCell>
        <mxCell id="LFqhlHz371uRSVuWxBN7-95" value="Extends" style="endArrow=block;endSize=16;endFill=0;html=1;rounded=0;fontSize=15;exitX=0.5;exitY=0;exitDx=0;exitDy=0;" parent="1" source="LFqhlHz371uRSVuWxBN7-41" target="LFqhlHz371uRSVuWxBN7-89" edge="1">
          <mxGeometry width="160" relative="1" as="geometry">
            <mxPoint x="390" y="210" as="sourcePoint" />
            <mxPoint x="550" y="210" as="targetPoint" />
          </mxGeometry>
        </mxCell>
        <mxCell id="LFqhlHz371uRSVuWxBN7-96" value="StateManager" style="swimlane;fontStyle=1;align=center;verticalAlign=top;childLayout=stackLayout;horizontal=1;startSize=26;horizontalStack=0;resizeParent=1;resizeParentMax=0;resizeLast=0;collapsible=1;marginBottom=0;fontSize=15;" parent="1" vertex="1">
          <mxGeometry x="485" y="-42" width="220" height="140" as="geometry" />
        </mxCell>
        <mxCell id="LFqhlHz371uRSVuWxBN7-97" value="+ questions: []" style="text;strokeColor=none;fillColor=none;align=left;verticalAlign=top;spacingLeft=4;spacingRight=4;overflow=hidden;rotatable=0;points=[[0,0.5],[1,0.5]];portConstraint=eastwest;fontSize=15;" parent="LFqhlHz371uRSVuWxBN7-96" vertex="1">
          <mxGeometry y="26" width="220" height="26" as="geometry" />
        </mxCell>
        <mxCell id="LFqhlHz371uRSVuWxBN7-98" value="" style="line;strokeWidth=1;fillColor=none;align=left;verticalAlign=middle;spacingTop=-1;spacingLeft=3;spacingRight=3;rotatable=0;labelPosition=right;points=[];portConstraint=eastwest;fontSize=15;" parent="LFqhlHz371uRSVuWxBN7-96" vertex="1">
          <mxGeometry y="52" width="220" height="8" as="geometry" />
        </mxCell>
        <mxCell id="LFqhlHz371uRSVuWxBN7-99" value="+ updateQuestion()&#xa;+ questions: []&#xa;+ visibleQuestions(): []&#xa;+ checkDependency()&#xa;" style="text;strokeColor=none;fillColor=none;align=left;verticalAlign=top;spacingLeft=4;spacingRight=4;overflow=hidden;rotatable=0;points=[[0,0.5],[1,0.5]];portConstraint=eastwest;fontSize=15;" parent="LFqhlHz371uRSVuWxBN7-96" vertex="1">
          <mxGeometry y="60" width="220" height="80" as="geometry" />
        </mxCell>
        <mxCell id="LFqhlHz371uRSVuWxBN7-104" value="" style="endArrow=diamondThin;endFill=1;endSize=24;html=1;rounded=0;fontSize=15;entryX=0.5;entryY=0;entryDx=0;entryDy=0;exitX=0.436;exitY=1.023;exitDx=0;exitDy=0;exitPerimeter=0;" parent="1" source="LFqhlHz371uRSVuWxBN7-99" target="LFqhlHz371uRSVuWxBN7-18" edge="1">
          <mxGeometry width="160" relative="1" as="geometry">
            <mxPoint x="580" y="110" as="sourcePoint" />
            <mxPoint x="540" y="200" as="targetPoint" />
          </mxGeometry>
        </mxCell>
        <mxCell id="LFqhlHz371uRSVuWxBN7-113" value="RenderComponentFactory" style="swimlane;fontStyle=1;align=center;verticalAlign=top;childLayout=stackLayout;horizontal=1;startSize=26;horizontalStack=0;resizeParent=1;resizeParentMax=0;resizeLast=0;collapsible=1;marginBottom=0;fontSize=15;" parent="1" vertex="1">
          <mxGeometry x="750" y="180" width="200" height="120" as="geometry" />
        </mxCell>
        <mxCell id="LFqhlHz371uRSVuWxBN7-114" value="+ components: type" style="text;strokeColor=none;fillColor=none;align=left;verticalAlign=top;spacingLeft=4;spacingRight=4;overflow=hidden;rotatable=0;points=[[0,0.5],[1,0.5]];portConstraint=eastwest;fontSize=15;" parent="LFqhlHz371uRSVuWxBN7-113" vertex="1">
          <mxGeometry y="26" width="200" height="26" as="geometry" />
        </mxCell>
        <mxCell id="LFqhlHz371uRSVuWxBN7-115" value="" style="line;strokeWidth=1;fillColor=none;align=left;verticalAlign=middle;spacingTop=-1;spacingLeft=3;spacingRight=3;rotatable=0;labelPosition=right;points=[];portConstraint=eastwest;fontSize=15;" parent="LFqhlHz371uRSVuWxBN7-113" vertex="1">
          <mxGeometry y="52" width="200" height="8" as="geometry" />
        </mxCell>
        <mxCell id="LFqhlHz371uRSVuWxBN7-116" value="+ registerComponent()&#xa;+ getComponent" style="text;strokeColor=none;fillColor=none;align=left;verticalAlign=top;spacingLeft=4;spacingRight=4;overflow=hidden;rotatable=0;points=[[0,0.5],[1,0.5]];portConstraint=eastwest;fontSize=15;" parent="LFqhlHz371uRSVuWxBN7-113" vertex="1">
          <mxGeometry y="60" width="200" height="60" as="geometry" />
        </mxCell>
        <mxCell id="LFqhlHz371uRSVuWxBN7-117" value="Use" style="endArrow=open;endSize=12;dashed=1;html=1;rounded=0;fontSize=15;exitX=1;exitY=0.5;exitDx=0;exitDy=0;entryX=0;entryY=0.5;entryDx=0;entryDy=0;" parent="1" source="LFqhlHz371uRSVuWxBN7-19" target="LFqhlHz371uRSVuWxBN7-114" edge="1">
          <mxGeometry width="160" relative="1" as="geometry">
            <mxPoint x="380" y="310" as="sourcePoint" />
            <mxPoint x="540" y="310" as="targetPoint" />
          </mxGeometry>
        </mxCell>
        <mxCell id="LFqhlHz371uRSVuWxBN7-118" value="SingleSelect" style="swimlane;fontStyle=1;align=center;verticalAlign=top;childLayout=stackLayout;horizontal=1;startSize=26;horizontalStack=0;resizeParent=1;resizeParentMax=0;resizeLast=0;collapsible=1;marginBottom=0;fontSize=15;" parent="1" vertex="1">
          <mxGeometry x="960" y="-150" width="160" height="86" as="geometry" />
        </mxCell>
        <mxCell id="LFqhlHz371uRSVuWxBN7-119" value="+ field: type" style="text;strokeColor=none;fillColor=none;align=left;verticalAlign=top;spacingLeft=4;spacingRight=4;overflow=hidden;rotatable=0;points=[[0,0.5],[1,0.5]];portConstraint=eastwest;fontSize=15;" parent="LFqhlHz371uRSVuWxBN7-118" vertex="1">
          <mxGeometry y="26" width="160" height="26" as="geometry" />
        </mxCell>
        <mxCell id="LFqhlHz371uRSVuWxBN7-120" value="" style="line;strokeWidth=1;fillColor=none;align=left;verticalAlign=middle;spacingTop=-1;spacingLeft=3;spacingRight=3;rotatable=0;labelPosition=right;points=[];portConstraint=eastwest;fontSize=15;" parent="LFqhlHz371uRSVuWxBN7-118" vertex="1">
          <mxGeometry y="52" width="160" height="8" as="geometry" />
        </mxCell>
        <mxCell id="LFqhlHz371uRSVuWxBN7-121" value="+ method(type): type" style="text;strokeColor=none;fillColor=none;align=left;verticalAlign=top;spacingLeft=4;spacingRight=4;overflow=hidden;rotatable=0;points=[[0,0.5],[1,0.5]];portConstraint=eastwest;fontSize=15;" parent="LFqhlHz371uRSVuWxBN7-118" vertex="1">
          <mxGeometry y="60" width="160" height="26" as="geometry" />
        </mxCell>
        <mxCell id="LFqhlHz371uRSVuWxBN7-122" value="MultipleSelect" style="swimlane;fontStyle=1;align=center;verticalAlign=top;childLayout=stackLayout;horizontal=1;startSize=26;horizontalStack=0;resizeParent=1;resizeParentMax=0;resizeLast=0;collapsible=1;marginBottom=0;fontSize=15;" parent="1" vertex="1">
          <mxGeometry x="960" y="-10" width="160" height="86" as="geometry" />
        </mxCell>
        <mxCell id="LFqhlHz371uRSVuWxBN7-123" value="+ field: type" style="text;strokeColor=none;fillColor=none;align=left;verticalAlign=top;spacingLeft=4;spacingRight=4;overflow=hidden;rotatable=0;points=[[0,0.5],[1,0.5]];portConstraint=eastwest;fontSize=15;" parent="LFqhlHz371uRSVuWxBN7-122" vertex="1">
          <mxGeometry y="26" width="160" height="26" as="geometry" />
        </mxCell>
        <mxCell id="LFqhlHz371uRSVuWxBN7-124" value="" style="line;strokeWidth=1;fillColor=none;align=left;verticalAlign=middle;spacingTop=-1;spacingLeft=3;spacingRight=3;rotatable=0;labelPosition=right;points=[];portConstraint=eastwest;fontSize=15;" parent="LFqhlHz371uRSVuWxBN7-122" vertex="1">
          <mxGeometry y="52" width="160" height="8" as="geometry" />
        </mxCell>
        <mxCell id="LFqhlHz371uRSVuWxBN7-125" value="+ method(type): type" style="text;strokeColor=none;fillColor=none;align=left;verticalAlign=top;spacingLeft=4;spacingRight=4;overflow=hidden;rotatable=0;points=[[0,0.5],[1,0.5]];portConstraint=eastwest;fontSize=15;" parent="LFqhlHz371uRSVuWxBN7-122" vertex="1">
          <mxGeometry y="60" width="160" height="26" as="geometry" />
        </mxCell>
        <mxCell id="LFqhlHz371uRSVuWxBN7-126" value="CustomInput" style="swimlane;fontStyle=1;align=center;verticalAlign=top;childLayout=stackLayout;horizontal=1;startSize=40;horizontalStack=0;resizeParent=1;resizeParentMax=0;resizeLast=0;collapsible=1;marginBottom=0;fontSize=15;" parent="1" vertex="1">
          <mxGeometry x="960" y="120" width="160" height="100" as="geometry" />
        </mxCell>
        <mxCell id="LFqhlHz371uRSVuWxBN7-127" value="+ field: type" style="text;strokeColor=none;fillColor=none;align=left;verticalAlign=top;spacingLeft=4;spacingRight=4;overflow=hidden;rotatable=0;points=[[0,0.5],[1,0.5]];portConstraint=eastwest;fontSize=15;" parent="LFqhlHz371uRSVuWxBN7-126" vertex="1">
          <mxGeometry y="40" width="160" height="26" as="geometry" />
        </mxCell>
        <mxCell id="LFqhlHz371uRSVuWxBN7-128" value="" style="line;strokeWidth=1;fillColor=none;align=left;verticalAlign=middle;spacingTop=-1;spacingLeft=3;spacingRight=3;rotatable=0;labelPosition=right;points=[];portConstraint=eastwest;fontSize=15;" parent="LFqhlHz371uRSVuWxBN7-126" vertex="1">
          <mxGeometry y="66" width="160" height="8" as="geometry" />
        </mxCell>
        <mxCell id="LFqhlHz371uRSVuWxBN7-129" value="+ method(type): type" style="text;strokeColor=none;fillColor=none;align=left;verticalAlign=top;spacingLeft=4;spacingRight=4;overflow=hidden;rotatable=0;points=[[0,0.5],[1,0.5]];portConstraint=eastwest;fontSize=15;" parent="LFqhlHz371uRSVuWxBN7-126" vertex="1">
          <mxGeometry y="74" width="160" height="26" as="geometry" />
        </mxCell>
        <mxCell id="LFqhlHz371uRSVuWxBN7-131" value="QuestionInputRender" style="swimlane;fontStyle=1;align=center;verticalAlign=top;childLayout=stackLayout;horizontal=1;startSize=26;horizontalStack=0;resizeParent=1;resizeParentMax=0;resizeLast=0;collapsible=1;marginBottom=0;fontSize=15;" parent="1" vertex="1">
          <mxGeometry x="770" y="-24" width="160" height="86" as="geometry" />
        </mxCell>
        <mxCell id="LFqhlHz371uRSVuWxBN7-132" value="+ field: type" style="text;strokeColor=none;fillColor=none;align=left;verticalAlign=top;spacingLeft=4;spacingRight=4;overflow=hidden;rotatable=0;points=[[0,0.5],[1,0.5]];portConstraint=eastwest;fontSize=15;" parent="LFqhlHz371uRSVuWxBN7-131" vertex="1">
          <mxGeometry y="26" width="160" height="26" as="geometry" />
        </mxCell>
        <mxCell id="LFqhlHz371uRSVuWxBN7-133" value="" style="line;strokeWidth=1;fillColor=none;align=left;verticalAlign=middle;spacingTop=-1;spacingLeft=3;spacingRight=3;rotatable=0;labelPosition=right;points=[];portConstraint=eastwest;fontSize=15;" parent="LFqhlHz371uRSVuWxBN7-131" vertex="1">
          <mxGeometry y="52" width="160" height="8" as="geometry" />
        </mxCell>
        <mxCell id="LFqhlHz371uRSVuWxBN7-134" value="+ method(type): type" style="text;strokeColor=none;fillColor=none;align=left;verticalAlign=top;spacingLeft=4;spacingRight=4;overflow=hidden;rotatable=0;points=[[0,0.5],[1,0.5]];portConstraint=eastwest;fontSize=15;" parent="LFqhlHz371uRSVuWxBN7-131" vertex="1">
          <mxGeometry y="60" width="160" height="26" as="geometry" />
        </mxCell>
        <mxCell id="LFqhlHz371uRSVuWxBN7-136" value="" style="endArrow=diamondThin;endFill=1;endSize=24;html=1;rounded=0;fontSize=15;entryX=0.5;entryY=0;entryDx=0;entryDy=0;" parent="1" source="LFqhlHz371uRSVuWxBN7-134" target="LFqhlHz371uRSVuWxBN7-113" edge="1">
          <mxGeometry width="160" relative="1" as="geometry">
            <mxPoint x="600" y="40" as="sourcePoint" />
            <mxPoint x="760" y="40" as="targetPoint" />
          </mxGeometry>
        </mxCell>
        <mxCell id="LFqhlHz371uRSVuWxBN7-137" value="Extends" style="endArrow=block;endSize=16;endFill=0;html=1;rounded=0;fontSize=15;exitX=0;exitY=0.5;exitDx=0;exitDy=0;entryX=1;entryY=0.5;entryDx=0;entryDy=0;" parent="1" source="LFqhlHz371uRSVuWxBN7-119" target="LFqhlHz371uRSVuWxBN7-132" edge="1">
          <mxGeometry width="160" relative="1" as="geometry">
            <mxPoint x="600" y="40" as="sourcePoint" />
            <mxPoint x="760" y="40" as="targetPoint" />
          </mxGeometry>
        </mxCell>
        <mxCell id="LFqhlHz371uRSVuWxBN7-138" value="" style="endArrow=block;endSize=16;endFill=0;html=1;rounded=0;fontSize=15;exitX=-0.015;exitY=0.787;exitDx=0;exitDy=0;exitPerimeter=0;entryX=1.002;entryY=0.794;entryDx=0;entryDy=0;entryPerimeter=0;" parent="1" source="LFqhlHz371uRSVuWxBN7-123" target="LFqhlHz371uRSVuWxBN7-132" edge="1">
          <mxGeometry width="160" relative="1" as="geometry">
            <mxPoint x="600" y="40" as="sourcePoint" />
            <mxPoint x="760" y="40" as="targetPoint" />
          </mxGeometry>
        </mxCell>
        <mxCell id="LFqhlHz371uRSVuWxBN7-139" value="Extends" style="endArrow=block;endSize=16;endFill=0;html=1;rounded=0;fontSize=15;exitX=0;exitY=0.5;exitDx=0;exitDy=0;entryX=1.008;entryY=1.038;entryDx=0;entryDy=0;entryPerimeter=0;" parent="1" source="LFqhlHz371uRSVuWxBN7-127" target="LFqhlHz371uRSVuWxBN7-132" edge="1">
          <mxGeometry width="160" relative="1" as="geometry">
            <mxPoint x="600" y="40" as="sourcePoint" />
            <mxPoint x="760" y="40" as="targetPoint" />
          </mxGeometry>
        </mxCell>
        <mxCell id="lLfdVDOCTC8emgnfOahv-1" value="«interface»&lt;br&gt;&lt;b&gt;OperatorValueInputRender&lt;/b&gt;" style="html=1;" vertex="1" parent="1">
          <mxGeometry x="-70" y="62" width="190" height="50" as="geometry" />
        </mxCell>
        <mxCell id="lLfdVDOCTC8emgnfOahv-2" value="" style="endArrow=diamondThin;endFill=1;endSize=24;html=1;rounded=0;entryX=0.5;entryY=0;entryDx=0;entryDy=0;" edge="1" parent="1" target="LFqhlHz371uRSVuWxBN7-86">
          <mxGeometry width="160" relative="1" as="geometry">
            <mxPoint x="210" y="60" as="sourcePoint" />
            <mxPoint x="320" y="80" as="targetPoint" />
          </mxGeometry>
        </mxCell>
        <mxCell id="lLfdVDOCTC8emgnfOahv-5" value="" style="endArrow=diamondThin;endFill=1;endSize=24;html=1;rounded=0;exitX=0.5;exitY=1;exitDx=0;exitDy=0;entryX=0.25;entryY=0;entryDx=0;entryDy=0;" edge="1" parent="1" source="lLfdVDOCTC8emgnfOahv-1" target="LFqhlHz371uRSVuWxBN7-86">
          <mxGeometry width="160" relative="1" as="geometry">
            <mxPoint x="160" y="80" as="sourcePoint" />
            <mxPoint x="120" y="170" as="targetPoint" />
          </mxGeometry>
        </mxCell>
        <mxCell id="lLfdVDOCTC8emgnfOahv-6" value="MultiSelect" style="swimlane;fontStyle=1;align=center;verticalAlign=top;childLayout=stackLayout;horizontal=1;startSize=26;horizontalStack=0;resizeParent=1;resizeParentMax=0;resizeLast=0;collapsible=1;marginBottom=0;" vertex="1" parent="1">
          <mxGeometry x="-334" y="-80" width="160" height="86" as="geometry" />
        </mxCell>
        <mxCell id="lLfdVDOCTC8emgnfOahv-7" value="+ field: type" style="text;strokeColor=none;fillColor=none;align=left;verticalAlign=top;spacingLeft=4;spacingRight=4;overflow=hidden;rotatable=0;points=[[0,0.5],[1,0.5]];portConstraint=eastwest;" vertex="1" parent="lLfdVDOCTC8emgnfOahv-6">
          <mxGeometry y="26" width="160" height="26" as="geometry" />
        </mxCell>
        <mxCell id="lLfdVDOCTC8emgnfOahv-8" value="" style="line;strokeWidth=1;fillColor=none;align=left;verticalAlign=middle;spacingTop=-1;spacingLeft=3;spacingRight=3;rotatable=0;labelPosition=right;points=[];portConstraint=eastwest;" vertex="1" parent="lLfdVDOCTC8emgnfOahv-6">
          <mxGeometry y="52" width="160" height="8" as="geometry" />
        </mxCell>
        <mxCell id="lLfdVDOCTC8emgnfOahv-9" value="+ method(type): type" style="text;strokeColor=none;fillColor=none;align=left;verticalAlign=top;spacingLeft=4;spacingRight=4;overflow=hidden;rotatable=0;points=[[0,0.5],[1,0.5]];portConstraint=eastwest;" vertex="1" parent="lLfdVDOCTC8emgnfOahv-6">
          <mxGeometry y="60" width="160" height="26" as="geometry" />
        </mxCell>
        <mxCell id="lLfdVDOCTC8emgnfOahv-10" value="BetweenWitth" style="swimlane;fontStyle=1;align=center;verticalAlign=top;childLayout=stackLayout;horizontal=1;startSize=26;horizontalStack=0;resizeParent=1;resizeParentMax=0;resizeLast=0;collapsible=1;marginBottom=0;" vertex="1" parent="1">
          <mxGeometry x="-334" y="30" width="160" height="86" as="geometry" />
        </mxCell>
        <mxCell id="lLfdVDOCTC8emgnfOahv-11" value="+ field: type" style="text;strokeColor=none;fillColor=none;align=left;verticalAlign=top;spacingLeft=4;spacingRight=4;overflow=hidden;rotatable=0;points=[[0,0.5],[1,0.5]];portConstraint=eastwest;" vertex="1" parent="lLfdVDOCTC8emgnfOahv-10">
          <mxGeometry y="26" width="160" height="26" as="geometry" />
        </mxCell>
        <mxCell id="lLfdVDOCTC8emgnfOahv-12" value="" style="line;strokeWidth=1;fillColor=none;align=left;verticalAlign=middle;spacingTop=-1;spacingLeft=3;spacingRight=3;rotatable=0;labelPosition=right;points=[];portConstraint=eastwest;" vertex="1" parent="lLfdVDOCTC8emgnfOahv-10">
          <mxGeometry y="52" width="160" height="8" as="geometry" />
        </mxCell>
        <mxCell id="lLfdVDOCTC8emgnfOahv-13" value="+ method(type): type" style="text;strokeColor=none;fillColor=none;align=left;verticalAlign=top;spacingLeft=4;spacingRight=4;overflow=hidden;rotatable=0;points=[[0,0.5],[1,0.5]];portConstraint=eastwest;" vertex="1" parent="lLfdVDOCTC8emgnfOahv-10">
          <mxGeometry y="60" width="160" height="26" as="geometry" />
        </mxCell>
        <mxCell id="lLfdVDOCTC8emgnfOahv-14" value="CustomizedInput" style="swimlane;fontStyle=1;align=center;verticalAlign=top;childLayout=stackLayout;horizontal=1;startSize=26;horizontalStack=0;resizeParent=1;resizeParentMax=0;resizeLast=0;collapsible=1;marginBottom=0;" vertex="1" parent="1">
          <mxGeometry x="-334" y="140" width="160" height="86" as="geometry" />
        </mxCell>
        <mxCell id="lLfdVDOCTC8emgnfOahv-15" value="+ field: type" style="text;strokeColor=none;fillColor=none;align=left;verticalAlign=top;spacingLeft=4;spacingRight=4;overflow=hidden;rotatable=0;points=[[0,0.5],[1,0.5]];portConstraint=eastwest;" vertex="1" parent="lLfdVDOCTC8emgnfOahv-14">
          <mxGeometry y="26" width="160" height="26" as="geometry" />
        </mxCell>
        <mxCell id="lLfdVDOCTC8emgnfOahv-16" value="" style="line;strokeWidth=1;fillColor=none;align=left;verticalAlign=middle;spacingTop=-1;spacingLeft=3;spacingRight=3;rotatable=0;labelPosition=right;points=[];portConstraint=eastwest;" vertex="1" parent="lLfdVDOCTC8emgnfOahv-14">
          <mxGeometry y="52" width="160" height="8" as="geometry" />
        </mxCell>
        <mxCell id="lLfdVDOCTC8emgnfOahv-17" value="+ method(type): type" style="text;strokeColor=none;fillColor=none;align=left;verticalAlign=top;spacingLeft=4;spacingRight=4;overflow=hidden;rotatable=0;points=[[0,0.5],[1,0.5]];portConstraint=eastwest;" vertex="1" parent="lLfdVDOCTC8emgnfOahv-14">
          <mxGeometry y="60" width="160" height="26" as="geometry" />
        </mxCell>
        <mxCell id="lLfdVDOCTC8emgnfOahv-18" value="SingleSelect" style="swimlane;fontStyle=1;align=center;verticalAlign=top;childLayout=stackLayout;horizontal=1;startSize=26;horizontalStack=0;resizeParent=1;resizeParentMax=0;resizeLast=0;collapsible=1;marginBottom=0;" vertex="1" parent="1">
          <mxGeometry x="-334" y="-180" width="160" height="86" as="geometry" />
        </mxCell>
        <mxCell id="lLfdVDOCTC8emgnfOahv-19" value="+ field: type" style="text;strokeColor=none;fillColor=none;align=left;verticalAlign=top;spacingLeft=4;spacingRight=4;overflow=hidden;rotatable=0;points=[[0,0.5],[1,0.5]];portConstraint=eastwest;" vertex="1" parent="lLfdVDOCTC8emgnfOahv-18">
          <mxGeometry y="26" width="160" height="26" as="geometry" />
        </mxCell>
        <mxCell id="lLfdVDOCTC8emgnfOahv-20" value="" style="line;strokeWidth=1;fillColor=none;align=left;verticalAlign=middle;spacingTop=-1;spacingLeft=3;spacingRight=3;rotatable=0;labelPosition=right;points=[];portConstraint=eastwest;" vertex="1" parent="lLfdVDOCTC8emgnfOahv-18">
          <mxGeometry y="52" width="160" height="8" as="geometry" />
        </mxCell>
        <mxCell id="lLfdVDOCTC8emgnfOahv-21" value="+ method(type): type" style="text;strokeColor=none;fillColor=none;align=left;verticalAlign=top;spacingLeft=4;spacingRight=4;overflow=hidden;rotatable=0;points=[[0,0.5],[1,0.5]];portConstraint=eastwest;" vertex="1" parent="lLfdVDOCTC8emgnfOahv-18">
          <mxGeometry y="60" width="160" height="26" as="geometry" />
        </mxCell>
        <mxCell id="lLfdVDOCTC8emgnfOahv-22" value="" style="endArrow=block;dashed=1;endFill=0;endSize=12;html=1;rounded=0;exitX=1;exitY=0.5;exitDx=0;exitDy=0;entryX=0.25;entryY=0;entryDx=0;entryDy=0;" edge="1" parent="1" source="lLfdVDOCTC8emgnfOahv-19" target="lLfdVDOCTC8emgnfOahv-1">
          <mxGeometry width="160" relative="1" as="geometry">
            <mxPoint x="-10" y="10" as="sourcePoint" />
            <mxPoint x="30" y="10" as="targetPoint" />
          </mxGeometry>
        </mxCell>
        <mxCell id="lLfdVDOCTC8emgnfOahv-23" value="" style="endArrow=block;dashed=1;endFill=0;endSize=12;html=1;rounded=0;exitX=1;exitY=0.5;exitDx=0;exitDy=0;entryX=0;entryY=0.25;entryDx=0;entryDy=0;" edge="1" parent="1" source="lLfdVDOCTC8emgnfOahv-7" target="lLfdVDOCTC8emgnfOahv-1">
          <mxGeometry width="160" relative="1" as="geometry">
            <mxPoint x="-150" y="-131" as="sourcePoint" />
            <mxPoint x="40" y="20" as="targetPoint" />
          </mxGeometry>
        </mxCell>
        <mxCell id="lLfdVDOCTC8emgnfOahv-24" value="" style="endArrow=block;dashed=1;endFill=0;endSize=12;html=1;rounded=0;exitX=1;exitY=0.5;exitDx=0;exitDy=0;entryX=0;entryY=0.75;entryDx=0;entryDy=0;" edge="1" parent="1" source="lLfdVDOCTC8emgnfOahv-11" target="lLfdVDOCTC8emgnfOahv-1">
          <mxGeometry width="160" relative="1" as="geometry">
            <mxPoint x="-140" y="-121" as="sourcePoint" />
            <mxPoint x="50" y="30" as="targetPoint" />
          </mxGeometry>
        </mxCell>
        <mxCell id="lLfdVDOCTC8emgnfOahv-25" value="" style="endArrow=block;dashed=1;endFill=0;endSize=12;html=1;rounded=0;exitX=1;exitY=0.5;exitDx=0;exitDy=0;entryX=0.25;entryY=1;entryDx=0;entryDy=0;" edge="1" parent="1" source="lLfdVDOCTC8emgnfOahv-15" target="lLfdVDOCTC8emgnfOahv-1">
          <mxGeometry width="160" relative="1" as="geometry">
            <mxPoint x="-130" y="-111" as="sourcePoint" />
            <mxPoint x="60" y="40" as="targetPoint" />
          </mxGeometry>
        </mxCell>
        <mxCell id="lLfdVDOCTC8emgnfOahv-27" value="«interface»&lt;br&gt;&lt;b&gt;Operator&lt;/b&gt;" style="html=1;" vertex="1" parent="1">
          <mxGeometry x="155" y="9" width="110" height="50" as="geometry" />
        </mxCell>
        <mxCell id="lLfdVDOCTC8emgnfOahv-28" value="" style="endArrow=block;dashed=1;endFill=0;endSize=12;html=1;rounded=0;exitX=0.859;exitY=1.154;exitDx=0;exitDy=0;exitPerimeter=0;entryX=0.25;entryY=0;entryDx=0;entryDy=0;" edge="1" parent="1" source="LFqhlHz371uRSVuWxBN7-62" target="lLfdVDOCTC8emgnfOahv-27">
          <mxGeometry width="160" relative="1" as="geometry">
            <mxPoint x="-10" y="10" as="sourcePoint" />
            <mxPoint x="150" y="10" as="targetPoint" />
          </mxGeometry>
        </mxCell>
        <mxCell id="lLfdVDOCTC8emgnfOahv-29" value="" style="endArrow=block;dashed=1;endFill=0;endSize=12;html=1;rounded=0;exitX=0.573;exitY=0.962;exitDx=0;exitDy=0;exitPerimeter=0;entryX=0.25;entryY=0;entryDx=0;entryDy=0;" edge="1" parent="1" source="LFqhlHz371uRSVuWxBN7-66" target="lLfdVDOCTC8emgnfOahv-27">
          <mxGeometry width="160" relative="1" as="geometry">
            <mxPoint x="122.96000000000004" y="-71.99800000000005" as="sourcePoint" />
            <mxPoint x="192.5" y="19" as="targetPoint" />
          </mxGeometry>
        </mxCell>
        <mxCell id="lLfdVDOCTC8emgnfOahv-31" value="Not In" style="swimlane;fontStyle=1;align=center;verticalAlign=top;childLayout=stackLayout;horizontal=1;startSize=26;horizontalStack=0;resizeParent=1;resizeParentMax=0;resizeLast=0;collapsible=1;marginBottom=0;fontSize=15;" vertex="1" parent="1">
          <mxGeometry x="155" y="-270" width="220" height="86" as="geometry" />
        </mxCell>
        <mxCell id="lLfdVDOCTC8emgnfOahv-32" value="+ operator: string" style="text;strokeColor=none;fillColor=none;align=left;verticalAlign=top;spacingLeft=4;spacingRight=4;overflow=hidden;rotatable=0;points=[[0,0.5],[1,0.5]];portConstraint=eastwest;fontSize=15;" vertex="1" parent="lLfdVDOCTC8emgnfOahv-31">
          <mxGeometry y="26" width="220" height="26" as="geometry" />
        </mxCell>
        <mxCell id="lLfdVDOCTC8emgnfOahv-33" value="" style="line;strokeWidth=1;fillColor=none;align=left;verticalAlign=middle;spacingTop=-1;spacingLeft=3;spacingRight=3;rotatable=0;labelPosition=right;points=[];portConstraint=eastwest;fontSize=15;" vertex="1" parent="lLfdVDOCTC8emgnfOahv-31">
          <mxGeometry y="52" width="220" height="8" as="geometry" />
        </mxCell>
        <mxCell id="lLfdVDOCTC8emgnfOahv-34" value="+ evaluate(left, right): any" style="text;strokeColor=none;fillColor=none;align=left;verticalAlign=top;spacingLeft=4;spacingRight=4;overflow=hidden;rotatable=0;points=[[0,0.5],[1,0.5]];portConstraint=eastwest;fontSize=15;" vertex="1" parent="lLfdVDOCTC8emgnfOahv-31">
          <mxGeometry y="60" width="220" height="26" as="geometry" />
        </mxCell>
        <mxCell id="lLfdVDOCTC8emgnfOahv-35" value="" style="endArrow=block;dashed=1;endFill=0;endSize=12;html=1;rounded=0;entryX=0.5;entryY=0;entryDx=0;entryDy=0;" edge="1" parent="1" source="lLfdVDOCTC8emgnfOahv-34" target="lLfdVDOCTC8emgnfOahv-27">
          <mxGeometry width="160" relative="1" as="geometry">
            <mxPoint x="128.98000000000002" y="-179.9960000000001" as="sourcePoint" />
            <mxPoint x="192.5" y="19" as="targetPoint" />
          </mxGeometry>
        </mxCell>
        <mxCell id="lLfdVDOCTC8emgnfOahv-36" value="" style="endArrow=block;dashed=1;endFill=0;endSize=12;html=1;rounded=0;exitX=0;exitY=0.5;exitDx=0;exitDy=0;entryX=0.75;entryY=0;entryDx=0;entryDy=0;" edge="1" parent="1" source="LFqhlHz371uRSVuWxBN7-69" target="lLfdVDOCTC8emgnfOahv-27">
          <mxGeometry width="160" relative="1" as="geometry">
            <mxPoint x="138.98000000000002" y="-169.9960000000001" as="sourcePoint" />
            <mxPoint x="240" as="targetPoint" />
          </mxGeometry>
        </mxCell>
        <mxCell id="lLfdVDOCTC8emgnfOahv-37" value="" style="endArrow=diamondThin;endFill=1;endSize=24;html=1;rounded=0;entryX=0.25;entryY=0;entryDx=0;entryDy=0;exitX=1;exitY=0.5;exitDx=0;exitDy=0;" edge="1" parent="1" source="lLfdVDOCTC8emgnfOahv-27" target="LFqhlHz371uRSVuWxBN7-18">
          <mxGeometry width="160" relative="1" as="geometry">
            <mxPoint x="220" y="70" as="sourcePoint" />
            <mxPoint x="220" y="200" as="targetPoint" />
            <Array as="points">
              <mxPoint x="380" y="34" />
              <mxPoint x="380" y="140" />
              <mxPoint x="540" y="140" />
            </Array>
          </mxGeometry>
        </mxCell>
        <mxCell id="lLfdVDOCTC8emgnfOahv-38" value="«interface»&lt;br&gt;&lt;b&gt;OptionsInputRender&lt;/b&gt;" style="html=1;" vertex="1" parent="1">
          <mxGeometry x="-140" y="306" width="190" height="50" as="geometry" />
        </mxCell>
        <mxCell id="lLfdVDOCTC8emgnfOahv-40" value="" style="endArrow=diamondThin;endFill=1;endSize=24;html=1;rounded=0;exitX=1;exitY=0.5;exitDx=0;exitDy=0;entryX=0;entryY=0.5;entryDx=0;entryDy=0;" edge="1" parent="1" source="lLfdVDOCTC8emgnfOahv-38" target="LFqhlHz371uRSVuWxBN7-87">
          <mxGeometry width="160" relative="1" as="geometry">
            <mxPoint x="35" y="122" as="sourcePoint" />
            <mxPoint x="180" y="200" as="targetPoint" />
          </mxGeometry>
        </mxCell>
        <mxCell id="lLfdVDOCTC8emgnfOahv-41" value="DefaultOptionsSelector" style="swimlane;fontStyle=1;align=center;verticalAlign=top;childLayout=stackLayout;horizontal=1;startSize=26;horizontalStack=0;resizeParent=1;resizeParentMax=0;resizeLast=0;collapsible=1;marginBottom=0;" vertex="1" parent="1">
          <mxGeometry x="-334" y="291" width="160" height="86" as="geometry" />
        </mxCell>
        <mxCell id="lLfdVDOCTC8emgnfOahv-42" value="+ field: type" style="text;strokeColor=none;fillColor=none;align=left;verticalAlign=top;spacingLeft=4;spacingRight=4;overflow=hidden;rotatable=0;points=[[0,0.5],[1,0.5]];portConstraint=eastwest;" vertex="1" parent="lLfdVDOCTC8emgnfOahv-41">
          <mxGeometry y="26" width="160" height="26" as="geometry" />
        </mxCell>
        <mxCell id="lLfdVDOCTC8emgnfOahv-43" value="" style="line;strokeWidth=1;fillColor=none;align=left;verticalAlign=middle;spacingTop=-1;spacingLeft=3;spacingRight=3;rotatable=0;labelPosition=right;points=[];portConstraint=eastwest;" vertex="1" parent="lLfdVDOCTC8emgnfOahv-41">
          <mxGeometry y="52" width="160" height="8" as="geometry" />
        </mxCell>
        <mxCell id="lLfdVDOCTC8emgnfOahv-44" value="+ method(type): type" style="text;strokeColor=none;fillColor=none;align=left;verticalAlign=top;spacingLeft=4;spacingRight=4;overflow=hidden;rotatable=0;points=[[0,0.5],[1,0.5]];portConstraint=eastwest;" vertex="1" parent="lLfdVDOCTC8emgnfOahv-41">
          <mxGeometry y="60" width="160" height="26" as="geometry" />
        </mxCell>
        <mxCell id="lLfdVDOCTC8emgnfOahv-45" value="CustomizedOptionsSelector" style="swimlane;fontStyle=1;align=center;verticalAlign=top;childLayout=stackLayout;horizontal=1;startSize=26;horizontalStack=0;resizeParent=1;resizeParentMax=0;resizeLast=0;collapsible=1;marginBottom=0;" vertex="1" parent="1">
          <mxGeometry x="-125" y="179" width="160" height="86" as="geometry" />
        </mxCell>
        <mxCell id="lLfdVDOCTC8emgnfOahv-46" value="+ field: type" style="text;strokeColor=none;fillColor=none;align=left;verticalAlign=top;spacingLeft=4;spacingRight=4;overflow=hidden;rotatable=0;points=[[0,0.5],[1,0.5]];portConstraint=eastwest;" vertex="1" parent="lLfdVDOCTC8emgnfOahv-45">
          <mxGeometry y="26" width="160" height="26" as="geometry" />
        </mxCell>
        <mxCell id="lLfdVDOCTC8emgnfOahv-47" value="" style="line;strokeWidth=1;fillColor=none;align=left;verticalAlign=middle;spacingTop=-1;spacingLeft=3;spacingRight=3;rotatable=0;labelPosition=right;points=[];portConstraint=eastwest;" vertex="1" parent="lLfdVDOCTC8emgnfOahv-45">
          <mxGeometry y="52" width="160" height="8" as="geometry" />
        </mxCell>
        <mxCell id="lLfdVDOCTC8emgnfOahv-48" value="+ method(type): type" style="text;strokeColor=none;fillColor=none;align=left;verticalAlign=top;spacingLeft=4;spacingRight=4;overflow=hidden;rotatable=0;points=[[0,0.5],[1,0.5]];portConstraint=eastwest;" vertex="1" parent="lLfdVDOCTC8emgnfOahv-45">
          <mxGeometry y="60" width="160" height="26" as="geometry" />
        </mxCell>
        <mxCell id="lLfdVDOCTC8emgnfOahv-49" value="" style="endArrow=block;dashed=1;endFill=0;endSize=12;html=1;rounded=0;exitX=1;exitY=0.5;exitDx=0;exitDy=0;entryX=0;entryY=0.5;entryDx=0;entryDy=0;" edge="1" parent="1" source="lLfdVDOCTC8emgnfOahv-42" target="lLfdVDOCTC8emgnfOahv-38">
          <mxGeometry width="160" relative="1" as="geometry">
            <mxPoint x="70" y="240" as="sourcePoint" />
            <mxPoint x="230" y="240" as="targetPoint" />
          </mxGeometry>
        </mxCell>
        <mxCell id="lLfdVDOCTC8emgnfOahv-50" value="" style="endArrow=block;dashed=1;endFill=0;endSize=12;html=1;rounded=0;exitX=0.494;exitY=1.077;exitDx=0;exitDy=0;exitPerimeter=0;entryX=0.5;entryY=0;entryDx=0;entryDy=0;" edge="1" parent="1" source="lLfdVDOCTC8emgnfOahv-48" target="lLfdVDOCTC8emgnfOahv-38">
          <mxGeometry width="160" relative="1" as="geometry">
            <mxPoint x="-125" y="420" as="sourcePoint" />
            <mxPoint x="-125" y="470" as="targetPoint" />
          </mxGeometry>
        </mxCell>
      </root>
    </mxGraphModel>
  </diagram>
</mxfile>
